<svg xmlns="http://www.w3.org/2000/svg" viewBox="0 0 961.69 441.41"><defs><style>.cls-1,.cls-2{fill:#01c4fc;}.cls-2{font-size:72.02px;font-family:AquireBold, Aquire;}.cls-3{fill:#fff;}.cls-4{fill:#ed802e;}.cls-5{fill:none;}</style></defs><g id="Layer_2" data-name="Layer 2"><g id="Layer_1-2" data-name="Layer 1"><path class="cls-1" d="M530.22,254.84H356a86.88,86.88,0,0,1-60-23.59A143.25,143.25,0,0,1,279.77,42.14a140.19,140.19,0,0,1,16.54-18.56A87,87,0,0,1,356.17.11H530.22V60.2H377.56c-35.76,0-65.73,29.08-66.82,64.81,0,.83,0,1.69,0,2.53s0,1.61,0,2.41c1,35.72,31,64.79,66.81,64.79H530.22Z"/><polygon class="cls-1" points="227.63 55.61 227.63 0.11 167.01 0.11 167.01 60.34 167.04 60.34 167.04 255.05 227.67 255.05 227.67 55.61 227.63 55.61"/><rect class="cls-1" x="650.41" y="84.12" width="60.62" height="170.83"/><rect class="cls-1" x="553.73" width="253.99" height="60.22"/><text class="cls-2" transform="translate(831.85 255.32) scale(0.99 1)">v8</text><path class="cls-3" d="M308.79,282.85v33.68H167.11V282.85Zm-108,124.88h108v33.68H167.11V339.79l33.68.21h93.86v33.68H200.8Z"/><path class="cls-3" d="M474.38,282.85v33.68H332.7V282.85Zm-108,124.88h108v33.68H332.7V339.79l33.67.21h93.86v33.68H366.38Z"/><path class="cls-3" d="M641.1,282.87v33.68H498.28V282.87ZM551.72,441.41V340H585.4V441.41Z"/><path class="cls-3" d="M807.82,282.79v99.15a49.91,49.91,0,0,1-13.22,34.14,80.17,80.17,0,0,1-10.34,9.32,79.38,79.38,0,0,1-106-9.46,50,50,0,0,1-13.15-34.07V282.79h33.67v86.9c0,20.35,16.3,37.41,36.32,38l1.42,0,1.35,0c20-.59,36.31-17.65,36.31-38v-86.9Z"/><path class="cls-3" d="M961.69,328.07A45.22,45.22,0,0,1,933,370.15s-.34.31-6.25,1.77a51.44,51.44,0,0,1-6.9,1.48H865.53v68H831.85V339.52h33.68v.07h51a11.52,11.52,0,0,0,0-23c-.28,0-.54,0-.75,0h-.09l-.23,0H910v-.07H831.85V282.88h86.78s3.6.44,6.88,1.08,5.66,1.35,5.66,1.35A45.19,45.19,0,0,1,961.69,328.07Z"/><circle class="cls-3" cx="23.83" cy="233.19" r="23.83"/><circle class="cls-4" cx="119" cy="231.49" r="23.83"/><rect class="cls-3" x="167.11" y="310.28" width="33.69" height="65.21"/><rect class="cls-3" x="332.7" y="307.19" width="33.69" height="65.21"/><path class="cls-5" d="M9.62,294.19A34.62,34.62,0,0,0,6,288.33"/><rect class="cls-3" x="39.41" y="314.22" width="33.68" height="78.2" transform="translate(-233.36 143.26) rotate(-45)"/><polygon class="cls-3" points="0.09 441.4 33.76 441.4 33.76 387.77 0.09 354.16 0.09 441.4"/><polygon class="cls-3" points="41.82 315.07 41.82 315.07 8.46 281.71 0.09 281.71 0.09 320.97 33.76 354.65 49.32 370.2 71.98 392.86 76.44 388.4 82.6 382.25 84.45 380.4 91.34 373.52 95.8 369.06 41.82 315.07"/><polygon class="cls-1" points="135.52 281.71 78.37 338.86 102.19 362.67 109.2 355.66 109.2 441.4 142.88 441.4 142.88 281.71 135.52 281.71"/></g></g></svg>
